<?xml version="1.0" encoding="utf-8"?>
<!-- Generator: Adobe Illustrator 19.2.1, SVG Export Plug-In . SVG Version: 6.00 Build 0)  -->
<svg version="1.1" id="layer" xmlns="http://www.w3.org/2000/svg" xmlns:xlink="http://www.w3.org/1999/xlink" x="0px" y="0px"
	 viewBox="0 0 652 652" style="enable-background:new 0 0 652 652;" xml:space="preserve">
<style type="text/css">
	.st0{fill:#F20024;}
</style>
<path class="st0" d="M548.1,270.9c-25.2,0-49.8,2.5-73.9,7.4l3.3,20.6c19.9-4,39.8-6.4,60.5-6.9v77.8h19.7V292
	c20.7,0.6,40.8,2.9,60.6,6.9l3.3-20.6C597.7,273.4,573.2,270.9,548.1,270.9z M218.1,274.6h-19.8V370h19.8V274.6z M21.6,278.6
	l3.3,20.6c19.9-4,39.8-6.4,60.5-6.9v77.8h19.7v-77.8c20.7,0.6,40.8,2.9,60.6,6.9l3.3-20.6c-23.9-4.8-48.5-7.3-73.6-7.3
	C70.3,271.2,45.7,273.7,21.6,278.6z M444.9,274.6h-19.8V370h19.8V274.6z M321.7,342.6c-22.3-23.2-42.2-49.9-56.1-71.9l-15.3,12.9
	c16.3,27.4,46.8,64.5,71.5,88.1l0.2-0.2c24.6-23.5,54.9-60.5,71.3-87.9l-15.3-12.9C363.9,292.7,344,319.4,321.7,342.6z"/>
</svg>
